<mxfile host="app.diagrams.net" modified="2022-11-06T15:30:08.572Z" agent="5.0 (Macintosh; Intel Mac OS X 10_15_7) AppleWebKit/537.36 (KHTML, like Gecko) Chrome/107.0.0.0 Safari/537.36" etag="0YAHxkREaW-ogev6WBQv" version="20.5.2" type="github" pages="2">
  <diagram id="8uqgado0AFzXxvvhK6Mf" name="New-Cloud-Account-Creation-Flow">
    <mxGraphModel dx="1018" dy="588" grid="1" gridSize="10" guides="1" tooltips="1" connect="1" arrows="1" fold="1" page="1" pageScale="1" pageWidth="850" pageHeight="1100" math="0" shadow="0">
      <root>
        <mxCell id="0" />
        <mxCell id="1" parent="0" />
        <mxCell id="pcmFgGx2oCK5pUwCPBzZ-1" value="Actor" style="shape=umlActor;verticalLabelPosition=bottom;verticalAlign=top;html=1;outlineConnect=0;" parent="1" vertex="1">
          <mxGeometry x="40" y="210" width="30" height="60" as="geometry" />
        </mxCell>
        <mxCell id="pcmFgGx2oCK5pUwCPBzZ-2" value="" style="endArrow=classic;html=1;rounded=0;" parent="1" source="pcmFgGx2oCK5pUwCPBzZ-1" edge="1">
          <mxGeometry width="50" height="50" relative="1" as="geometry">
            <mxPoint x="110" y="270" as="sourcePoint" />
            <mxPoint x="180" y="240" as="targetPoint" />
          </mxGeometry>
        </mxCell>
        <mxCell id="qoPiFBq_tKDIY9XLKDgb-7" value="&lt;b&gt;1 OPEN&lt;/b&gt;" style="edgeLabel;html=1;align=center;verticalAlign=middle;resizable=0;points=[];" vertex="1" connectable="0" parent="pcmFgGx2oCK5pUwCPBzZ-2">
          <mxGeometry x="-0.3273" y="1" relative="1" as="geometry">
            <mxPoint y="-9" as="offset" />
          </mxGeometry>
        </mxCell>
        <mxCell id="pcmFgGx2oCK5pUwCPBzZ-4" style="edgeStyle=orthogonalEdgeStyle;rounded=0;orthogonalLoop=1;jettySize=auto;html=1;exitX=0.5;exitY=1;exitDx=0;exitDy=0;" parent="1" source="pcmFgGx2oCK5pUwCPBzZ-3" edge="1">
          <mxGeometry relative="1" as="geometry">
            <mxPoint x="240" y="340" as="targetPoint" />
          </mxGeometry>
        </mxCell>
        <mxCell id="onPUVNJoLzKqrLVPdGGp-4" value="&lt;b&gt;2 ENTER&lt;/b&gt;" style="edgeLabel;html=1;align=center;verticalAlign=middle;resizable=0;points=[];" parent="pcmFgGx2oCK5pUwCPBzZ-4" vertex="1" connectable="0">
          <mxGeometry relative="1" as="geometry">
            <mxPoint as="offset" />
          </mxGeometry>
        </mxCell>
        <mxCell id="pcmFgGx2oCK5pUwCPBzZ-3" value="Create new Cloud Account" style="rounded=1;whiteSpace=wrap;html=1;fillColor=#dae8fc;strokeColor=#6c8ebf;" parent="1" vertex="1">
          <mxGeometry x="180" y="210" width="120" height="60" as="geometry" />
        </mxCell>
        <mxCell id="pcmFgGx2oCK5pUwCPBzZ-7" style="edgeStyle=orthogonalEdgeStyle;rounded=0;orthogonalLoop=1;jettySize=auto;html=1;entryX=0;entryY=0.5;entryDx=0;entryDy=0;" parent="1" source="pcmFgGx2oCK5pUwCPBzZ-5" target="pcmFgGx2oCK5pUwCPBzZ-6" edge="1">
          <mxGeometry relative="1" as="geometry" />
        </mxCell>
        <mxCell id="pcmFgGx2oCK5pUwCPBzZ-8" value="Success" style="edgeLabel;html=1;align=center;verticalAlign=middle;resizable=0;points=[];" parent="pcmFgGx2oCK5pUwCPBzZ-7" vertex="1" connectable="0">
          <mxGeometry x="-0.0824" y="1" relative="1" as="geometry">
            <mxPoint x="5" y="21" as="offset" />
          </mxGeometry>
        </mxCell>
        <mxCell id="onPUVNJoLzKqrLVPdGGp-81" value="&lt;b&gt;3 SUBMIT&lt;/b&gt;" style="edgeLabel;html=1;align=center;verticalAlign=middle;resizable=0;points=[];" parent="pcmFgGx2oCK5pUwCPBzZ-7" vertex="1" connectable="0">
          <mxGeometry x="-0.2333" y="-1" relative="1" as="geometry">
            <mxPoint x="14" y="-1" as="offset" />
          </mxGeometry>
        </mxCell>
        <mxCell id="pcmFgGx2oCK5pUwCPBzZ-10" style="edgeStyle=orthogonalEdgeStyle;rounded=0;orthogonalLoop=1;jettySize=auto;html=1;exitX=0;exitY=0.5;exitDx=0;exitDy=0;entryX=0;entryY=1;entryDx=0;entryDy=0;" parent="1" source="pcmFgGx2oCK5pUwCPBzZ-5" target="pcmFgGx2oCK5pUwCPBzZ-3" edge="1">
          <mxGeometry relative="1" as="geometry" />
        </mxCell>
        <mxCell id="pcmFgGx2oCK5pUwCPBzZ-11" value="Failed" style="edgeLabel;html=1;align=center;verticalAlign=middle;resizable=0;points=[];" parent="pcmFgGx2oCK5pUwCPBzZ-10" vertex="1" connectable="0">
          <mxGeometry x="0.2385" relative="1" as="geometry">
            <mxPoint y="1" as="offset" />
          </mxGeometry>
        </mxCell>
        <mxCell id="onPUVNJoLzKqrLVPdGGp-37" value="send back to previous page" style="edgeLabel;html=1;align=center;verticalAlign=middle;resizable=0;points=[];" parent="pcmFgGx2oCK5pUwCPBzZ-10" vertex="1" connectable="0">
          <mxGeometry x="-0.1154" y="2" relative="1" as="geometry">
            <mxPoint x="-28" as="offset" />
          </mxGeometry>
        </mxCell>
        <mxCell id="pcmFgGx2oCK5pUwCPBzZ-5" value="Account Validation" style="rhombus;whiteSpace=wrap;html=1;fillColor=#f8cecc;strokeColor=#b85450;" parent="1" vertex="1">
          <mxGeometry x="200" y="340" width="80" height="80" as="geometry" />
        </mxCell>
        <mxCell id="onPUVNJoLzKqrLVPdGGp-27" value="Failed" style="edgeStyle=orthogonalEdgeStyle;rounded=0;orthogonalLoop=1;jettySize=auto;html=1;entryX=1;entryY=0.5;entryDx=0;entryDy=0;" parent="1" source="pcmFgGx2oCK5pUwCPBzZ-6" target="pcmFgGx2oCK5pUwCPBzZ-3" edge="1">
          <mxGeometry x="0.2857" relative="1" as="geometry">
            <Array as="points">
              <mxPoint x="480" y="240" />
            </Array>
            <mxPoint as="offset" />
          </mxGeometry>
        </mxCell>
        <mxCell id="onPUVNJoLzKqrLVPdGGp-36" value="send back to previous page" style="edgeLabel;html=1;align=center;verticalAlign=middle;resizable=0;points=[];" parent="onPUVNJoLzKqrLVPdGGp-27" vertex="1" connectable="0">
          <mxGeometry x="-0.5828" y="-1" relative="1" as="geometry">
            <mxPoint as="offset" />
          </mxGeometry>
        </mxCell>
        <mxCell id="onPUVNJoLzKqrLVPdGGp-28" style="edgeStyle=orthogonalEdgeStyle;rounded=0;orthogonalLoop=1;jettySize=auto;html=1;exitX=0.5;exitY=1;exitDx=0;exitDy=0;entryX=0.5;entryY=0;entryDx=0;entryDy=0;" parent="1" source="pcmFgGx2oCK5pUwCPBzZ-6" target="onPUVNJoLzKqrLVPdGGp-5" edge="1">
          <mxGeometry relative="1" as="geometry">
            <Array as="points">
              <mxPoint x="485" y="450" />
              <mxPoint x="485" y="450" />
            </Array>
          </mxGeometry>
        </mxCell>
        <mxCell id="onPUVNJoLzKqrLVPdGGp-29" value="Success" style="edgeLabel;html=1;align=center;verticalAlign=middle;resizable=0;points=[];" parent="onPUVNJoLzKqrLVPdGGp-28" vertex="1" connectable="0">
          <mxGeometry x="-0.1875" y="1" relative="1" as="geometry">
            <mxPoint x="-26" as="offset" />
          </mxGeometry>
        </mxCell>
        <mxCell id="pcmFgGx2oCK5pUwCPBzZ-6" value="Put the Account request file is S3" style="rounded=0;whiteSpace=wrap;html=1;fillColor=#fff2cc;strokeColor=#d6b656;" parent="1" vertex="1">
          <mxGeometry x="400" y="350" width="170" height="60" as="geometry" />
        </mxCell>
        <mxCell id="onPUVNJoLzKqrLVPdGGp-31" style="edgeStyle=orthogonalEdgeStyle;rounded=0;orthogonalLoop=1;jettySize=auto;html=1;exitX=0.5;exitY=1;exitDx=0;exitDy=0;" parent="1" source="pcmFgGx2oCK5pUwCPBzZ-13" target="pcmFgGx2oCK5pUwCPBzZ-15" edge="1">
          <mxGeometry relative="1" as="geometry" />
        </mxCell>
        <mxCell id="onPUVNJoLzKqrLVPdGGp-47" value="&lt;b&gt;5 CREATED&lt;/b&gt;" style="edgeLabel;html=1;align=center;verticalAlign=middle;resizable=0;points=[];" parent="onPUVNJoLzKqrLVPdGGp-31" vertex="1" connectable="0">
          <mxGeometry x="0.0119" y="-1" relative="1" as="geometry">
            <mxPoint x="1" y="-1" as="offset" />
          </mxGeometry>
        </mxCell>
        <mxCell id="pcmFgGx2oCK5pUwCPBzZ-13" value="hold for 5 seconds.. on UI" style="rounded=1;whiteSpace=wrap;html=1;fillColor=#f5f5f5;fontColor=#333333;strokeColor=#666666;" parent="1" vertex="1">
          <mxGeometry x="660" y="480" width="160" height="40" as="geometry" />
        </mxCell>
        <mxCell id="onPUVNJoLzKqrLVPdGGp-32" value="" style="edgeStyle=orthogonalEdgeStyle;rounded=0;orthogonalLoop=1;jettySize=auto;html=1;" parent="1" source="pcmFgGx2oCK5pUwCPBzZ-15" target="onPUVNJoLzKqrLVPdGGp-13" edge="1">
          <mxGeometry relative="1" as="geometry" />
        </mxCell>
        <mxCell id="onPUVNJoLzKqrLVPdGGp-34" value="Success" style="edgeLabel;html=1;align=center;verticalAlign=middle;resizable=0;points=[];" parent="onPUVNJoLzKqrLVPdGGp-32" vertex="1" connectable="0">
          <mxGeometry x="0.08" y="1" relative="1" as="geometry">
            <mxPoint y="-11" as="offset" />
          </mxGeometry>
        </mxCell>
        <mxCell id="onPUVNJoLzKqrLVPdGGp-33" style="edgeStyle=orthogonalEdgeStyle;rounded=0;orthogonalLoop=1;jettySize=auto;html=1;entryX=0.46;entryY=-0.07;entryDx=0;entryDy=0;entryPerimeter=0;" parent="1" source="pcmFgGx2oCK5pUwCPBzZ-15" target="onPUVNJoLzKqrLVPdGGp-17" edge="1">
          <mxGeometry relative="1" as="geometry" />
        </mxCell>
        <mxCell id="onPUVNJoLzKqrLVPdGGp-35" value="Failure" style="edgeLabel;html=1;align=center;verticalAlign=middle;resizable=0;points=[];" parent="onPUVNJoLzKqrLVPdGGp-33" vertex="1" connectable="0">
          <mxGeometry x="-0.1779" relative="1" as="geometry">
            <mxPoint x="21" y="2" as="offset" />
          </mxGeometry>
        </mxCell>
        <mxCell id="pcmFgGx2oCK5pUwCPBzZ-15" value="fetch the account creation status from S3" style="rounded=0;whiteSpace=wrap;html=1;fillColor=#fff2cc;strokeColor=#d6b656;" parent="1" vertex="1">
          <mxGeometry x="665" y="570" width="148.75" height="60" as="geometry" />
        </mxCell>
        <mxCell id="onPUVNJoLzKqrLVPdGGp-30" style="edgeStyle=orthogonalEdgeStyle;rounded=0;orthogonalLoop=1;jettySize=auto;html=1;exitX=1;exitY=0.5;exitDx=0;exitDy=0;" parent="1" source="onPUVNJoLzKqrLVPdGGp-5" target="pcmFgGx2oCK5pUwCPBzZ-13" edge="1">
          <mxGeometry relative="1" as="geometry" />
        </mxCell>
        <mxCell id="onPUVNJoLzKqrLVPdGGp-46" value="4" style="edgeLabel;html=1;align=center;verticalAlign=middle;resizable=0;points=[];" parent="onPUVNJoLzKqrLVPdGGp-30" vertex="1" connectable="0">
          <mxGeometry x="0.1556" y="-2" relative="1" as="geometry">
            <mxPoint y="-2" as="offset" />
          </mxGeometry>
        </mxCell>
        <mxCell id="onPUVNJoLzKqrLVPdGGp-80" value="" style="edgeStyle=orthogonalEdgeStyle;rounded=0;orthogonalLoop=1;jettySize=auto;html=1;" parent="1" source="onPUVNJoLzKqrLVPdGGp-5" target="pcmFgGx2oCK5pUwCPBzZ-6" edge="1">
          <mxGeometry relative="1" as="geometry" />
        </mxCell>
        <mxCell id="onPUVNJoLzKqrLVPdGGp-5" value="create a record in TblCloudAccountStage table" style="rounded=0;whiteSpace=wrap;html=1;fillColor=#ffe6cc;strokeColor=#d79b00;" parent="1" vertex="1">
          <mxGeometry x="400" y="480" width="170" height="40" as="geometry" />
        </mxCell>
        <mxCell id="onPUVNJoLzKqrLVPdGGp-40" style="edgeStyle=orthogonalEdgeStyle;rounded=0;orthogonalLoop=1;jettySize=auto;html=1;exitX=0.5;exitY=1;exitDx=0;exitDy=0;" parent="1" source="onPUVNJoLzKqrLVPdGGp-13" edge="1">
          <mxGeometry relative="1" as="geometry">
            <mxPoint x="485" y="710" as="targetPoint" />
          </mxGeometry>
        </mxCell>
        <mxCell id="onPUVNJoLzKqrLVPdGGp-13" value="Create new record in TblMainAccount" style="rounded=0;whiteSpace=wrap;html=1;fillColor=#d5e8d4;strokeColor=#82b366;" parent="1" vertex="1">
          <mxGeometry x="405" y="575" width="160" height="50" as="geometry" />
        </mxCell>
        <mxCell id="onPUVNJoLzKqrLVPdGGp-42" style="edgeStyle=orthogonalEdgeStyle;rounded=0;orthogonalLoop=1;jettySize=auto;html=1;" parent="1" source="onPUVNJoLzKqrLVPdGGp-17" edge="1">
          <mxGeometry relative="1" as="geometry">
            <mxPoint x="500" y="725" as="targetPoint" />
          </mxGeometry>
        </mxCell>
        <mxCell id="onPUVNJoLzKqrLVPdGGp-17" value="update status in TblCloudAccountStage" style="rounded=0;whiteSpace=wrap;html=1;fillColor=#ffe6cc;strokeColor=#d79b00;" parent="1" vertex="1">
          <mxGeometry x="670" y="700" width="150" height="50" as="geometry" />
        </mxCell>
        <mxCell id="onPUVNJoLzKqrLVPdGGp-49" style="edgeStyle=orthogonalEdgeStyle;rounded=0;orthogonalLoop=1;jettySize=auto;html=1;entryX=0;entryY=0.5;entryDx=0;entryDy=0;" parent="1" source="onPUVNJoLzKqrLVPdGGp-38" target="onPUVNJoLzKqrLVPdGGp-50" edge="1">
          <mxGeometry relative="1" as="geometry">
            <mxPoint x="176" y="874" as="targetPoint" />
          </mxGeometry>
        </mxCell>
        <mxCell id="onPUVNJoLzKqrLVPdGGp-38" value="Scheduler runs every 1Minute" style="aspect=fixed;html=1;points=[];align=center;image;fontSize=12;image=img/lib/azure2/general/Scheduler.svg;" parent="1" vertex="1">
          <mxGeometry x="50" y="846" width="68" height="68" as="geometry" />
        </mxCell>
        <mxCell id="onPUVNJoLzKqrLVPdGGp-44" value="" style="ellipse;html=1;shape=endState;fillColor=#000000;strokeColor=#ff0000;" parent="1" vertex="1">
          <mxGeometry x="470" y="710" width="30" height="30" as="geometry" />
        </mxCell>
        <mxCell id="xZsVo6f30EyC9vr5Mrp2-48" value="" style="edgeStyle=orthogonalEdgeStyle;rounded=0;orthogonalLoop=1;jettySize=auto;html=1;" edge="1" parent="1" source="onPUVNJoLzKqrLVPdGGp-50" target="xZsVo6f30EyC9vr5Mrp2-47">
          <mxGeometry relative="1" as="geometry" />
        </mxCell>
        <mxCell id="onPUVNJoLzKqrLVPdGGp-50" value="fetch the &lt;b&gt;account_response&lt;/b&gt; status file from S3" style="rounded=0;whiteSpace=wrap;html=1;fillColor=#fff2cc;strokeColor=#d6b656;" parent="1" vertex="1">
          <mxGeometry x="220" y="854" width="160" height="52" as="geometry" />
        </mxCell>
        <mxCell id="onPUVNJoLzKqrLVPdGGp-51" value="update status in &lt;b&gt;TblCloudAccountStage&lt;/b&gt;" style="rounded=0;whiteSpace=wrap;html=1;fillColor=#ffe6cc;strokeColor=#d79b00;" parent="1" vertex="1">
          <mxGeometry x="280" y="1000" width="150" height="50" as="geometry" />
        </mxCell>
        <mxCell id="onPUVNJoLzKqrLVPdGGp-53" value="Create new record in &lt;b&gt;TblMainAccount&lt;/b&gt;" style="rounded=0;whiteSpace=wrap;html=1;fillColor=#d5e8d4;strokeColor=#82b366;" parent="1" vertex="1">
          <mxGeometry x="600" y="1000" width="160" height="50" as="geometry" />
        </mxCell>
        <mxCell id="onPUVNJoLzKqrLVPdGGp-61" style="edgeStyle=orthogonalEdgeStyle;rounded=0;orthogonalLoop=1;jettySize=auto;html=1;entryX=0;entryY=0.5;entryDx=0;entryDy=0;" parent="1" source="onPUVNJoLzKqrLVPdGGp-56" edge="1" target="onPUVNJoLzKqrLVPdGGp-63">
          <mxGeometry relative="1" as="geometry">
            <mxPoint x="186" y="1255" as="targetPoint" />
          </mxGeometry>
        </mxCell>
        <mxCell id="onPUVNJoLzKqrLVPdGGp-68" value="&lt;b&gt;1 Download Template&lt;/b&gt;" style="edgeLabel;html=1;align=center;verticalAlign=middle;resizable=0;points=[];" parent="onPUVNJoLzKqrLVPdGGp-61" vertex="1" connectable="0">
          <mxGeometry x="-0.0909" y="-2" relative="1" as="geometry">
            <mxPoint x="1" y="-17" as="offset" />
          </mxGeometry>
        </mxCell>
        <mxCell id="onPUVNJoLzKqrLVPdGGp-72" style="edgeStyle=orthogonalEdgeStyle;rounded=0;orthogonalLoop=1;jettySize=auto;html=1;entryX=0;entryY=0.5;entryDx=0;entryDy=0;" parent="1" source="onPUVNJoLzKqrLVPdGGp-56" target="onPUVNJoLzKqrLVPdGGp-62" edge="1">
          <mxGeometry relative="1" as="geometry">
            <Array as="points">
              <mxPoint x="100" y="1403" />
            </Array>
          </mxGeometry>
        </mxCell>
        <mxCell id="onPUVNJoLzKqrLVPdGGp-73" value="&lt;b&gt;2 UPLOAD FILE&lt;/b&gt;" style="edgeLabel;html=1;align=center;verticalAlign=middle;resizable=0;points=[];" parent="onPUVNJoLzKqrLVPdGGp-72" vertex="1" connectable="0">
          <mxGeometry x="-0.4382" y="-2" relative="1" as="geometry">
            <mxPoint x="20" as="offset" />
          </mxGeometry>
        </mxCell>
        <mxCell id="onPUVNJoLzKqrLVPdGGp-56" value="" style="dashed=0;outlineConnect=0;html=1;align=center;labelPosition=center;verticalLabelPosition=bottom;verticalAlign=top;shape=mxgraph.weblogos.chrome" parent="1" vertex="1">
          <mxGeometry x="51.2" y="1220" width="68.8" height="70" as="geometry" />
        </mxCell>
        <mxCell id="onPUVNJoLzKqrLVPdGGp-57" value="" style="line;strokeWidth=2;html=1;fillColor=#fa6800;strokeColor=#C73500;fontColor=#000000;dashed=1;" parent="1" vertex="1">
          <mxGeometry x="20" y="790" width="1260" height="10" as="geometry" />
        </mxCell>
        <mxCell id="onPUVNJoLzKqrLVPdGGp-59" value="" style="line;strokeWidth=2;html=1;fillColor=#fa6800;strokeColor=#C73500;fontColor=#000000;dashed=1;" parent="1" vertex="1">
          <mxGeometry x="20" y="1100" width="1270" height="10" as="geometry" />
        </mxCell>
        <mxCell id="onPUVNJoLzKqrLVPdGGp-78" style="edgeStyle=orthogonalEdgeStyle;rounded=0;orthogonalLoop=1;jettySize=auto;html=1;" parent="1" source="onPUVNJoLzKqrLVPdGGp-62" target="onPUVNJoLzKqrLVPdGGp-77" edge="1">
          <mxGeometry relative="1" as="geometry" />
        </mxCell>
        <mxCell id="onPUVNJoLzKqrLVPdGGp-62" value="Upload Cloud Account file" style="rounded=1;whiteSpace=wrap;html=1;fillColor=#dae8fc;strokeColor=#6c8ebf;" parent="1" vertex="1">
          <mxGeometry x="190" y="1370" width="190" height="65" as="geometry" />
        </mxCell>
        <mxCell id="onPUVNJoLzKqrLVPdGGp-65" style="edgeStyle=orthogonalEdgeStyle;rounded=0;orthogonalLoop=1;jettySize=auto;html=1;" parent="1" source="onPUVNJoLzKqrLVPdGGp-63" target="onPUVNJoLzKqrLVPdGGp-64" edge="1">
          <mxGeometry relative="1" as="geometry" />
        </mxCell>
        <mxCell id="onPUVNJoLzKqrLVPdGGp-63" value="Open Import New Account" style="rounded=1;whiteSpace=wrap;html=1;fillColor=#dae8fc;strokeColor=#6c8ebf;" parent="1" vertex="1">
          <mxGeometry x="250" y="1222.5" width="190" height="65" as="geometry" />
        </mxCell>
        <mxCell id="onPUVNJoLzKqrLVPdGGp-64" value="Download the template and fill the &lt;b&gt;account-request&lt;/b&gt; details" style="rounded=1;whiteSpace=wrap;html=1;fillColor=#dae8fc;strokeColor=#6c8ebf;dashed=1;" parent="1" vertex="1">
          <mxGeometry x="555" y="1222.5" width="190" height="65" as="geometry" />
        </mxCell>
        <mxCell id="xZsVo6f30EyC9vr5Mrp2-20" style="edgeStyle=orthogonalEdgeStyle;rounded=0;orthogonalLoop=1;jettySize=auto;html=1;entryX=0.474;entryY=-0.006;entryDx=0;entryDy=0;entryPerimeter=0;" edge="1" parent="1" source="onPUVNJoLzKqrLVPdGGp-77" target="onPUVNJoLzKqrLVPdGGp-97">
          <mxGeometry relative="1" as="geometry">
            <mxPoint x="560" y="1610" as="targetPoint" />
          </mxGeometry>
        </mxCell>
        <mxCell id="xZsVo6f30EyC9vr5Mrp2-27" value="&lt;b&gt;3 VALIDATE&lt;/b&gt;" style="edgeLabel;html=1;align=center;verticalAlign=middle;resizable=0;points=[];" vertex="1" connectable="0" parent="xZsVo6f30EyC9vr5Mrp2-20">
          <mxGeometry x="0.0187" y="2" relative="1" as="geometry">
            <mxPoint as="offset" />
          </mxGeometry>
        </mxCell>
        <mxCell id="onPUVNJoLzKqrLVPdGGp-77" value="Insert records to&amp;nbsp; TblRawAccount" style="rounded=1;whiteSpace=wrap;html=1;fillColor=#d5e8d4;strokeColor=#82b366;dashed=1;" parent="1" vertex="1">
          <mxGeometry x="472.5" y="1373.75" width="175" height="56.25" as="geometry" />
        </mxCell>
        <mxCell id="xZsVo6f30EyC9vr5Mrp2-2" style="edgeStyle=orthogonalEdgeStyle;rounded=0;orthogonalLoop=1;jettySize=auto;html=1;entryX=0.5;entryY=0;entryDx=0;entryDy=0;exitX=0.469;exitY=1.006;exitDx=0;exitDy=0;exitPerimeter=0;" edge="1" parent="1" source="onPUVNJoLzKqrLVPdGGp-97" target="xZsVo6f30EyC9vr5Mrp2-3">
          <mxGeometry relative="1" as="geometry">
            <mxPoint x="560" y="1680" as="sourcePoint" />
            <mxPoint x="570" y="1698" as="targetPoint" />
          </mxGeometry>
        </mxCell>
        <mxCell id="onPUVNJoLzKqrLVPdGGp-97" value="&lt;br&gt;1. Delete ErrorStatus=Y records from&amp;nbsp;&lt;b style=&quot;text-align: center;&quot;&gt;TblStageCloudAccount&lt;/b&gt;&lt;br&gt;2. Read records from&amp;nbsp;&lt;span style=&quot;text-align: center;&quot;&gt;&lt;b&gt;TblRawAccount&lt;/b&gt;&lt;br&gt;3. validate&lt;br&gt;4. Insert records in to&amp;nbsp;&lt;/span&gt;&lt;span style=&quot;text-align: center;&quot;&gt;&lt;b&gt;TblStageCloudAccount&lt;/b&gt; with ErrorStatus - Y/N&lt;/span&gt;&lt;span style=&quot;text-align: center;&quot;&gt;&lt;br&gt;&lt;/span&gt;" style="rounded=1;whiteSpace=wrap;html=1;fillColor=#d5e8d4;strokeColor=#82b366;align=left;" parent="1" vertex="1">
          <mxGeometry x="395" y="1560" width="350" height="90" as="geometry" />
        </mxCell>
        <mxCell id="xZsVo6f30EyC9vr5Mrp2-18" style="edgeStyle=orthogonalEdgeStyle;rounded=0;orthogonalLoop=1;jettySize=auto;html=1;exitX=0.5;exitY=1;exitDx=0;exitDy=0;" edge="1" parent="1" source="onPUVNJoLzKqrLVPdGGp-101" target="xZsVo6f30EyC9vr5Mrp2-17">
          <mxGeometry relative="1" as="geometry" />
        </mxCell>
        <mxCell id="onPUVNJoLzKqrLVPdGGp-101" value="Put the &lt;b&gt;Account&lt;/b&gt; &lt;b&gt;Request&lt;/b&gt; file in S3" style="rounded=1;whiteSpace=wrap;html=1;fillColor=#fff2cc;strokeColor=#d6b656;" parent="1" vertex="1">
          <mxGeometry x="220" y="1764.75" width="180" height="65" as="geometry" />
        </mxCell>
        <mxCell id="xZsVo6f30EyC9vr5Mrp2-23" value="&lt;b&gt;YES&lt;/b&gt;" style="edgeStyle=orthogonalEdgeStyle;rounded=0;orthogonalLoop=1;jettySize=auto;html=1;exitX=1;exitY=0.5;exitDx=0;exitDy=0;entryX=0;entryY=0.5;entryDx=0;entryDy=0;" edge="1" parent="1" source="xZsVo6f30EyC9vr5Mrp2-3" target="xZsVo6f30EyC9vr5Mrp2-7">
          <mxGeometry relative="1" as="geometry" />
        </mxCell>
        <mxCell id="xZsVo6f30EyC9vr5Mrp2-25" style="edgeStyle=orthogonalEdgeStyle;rounded=0;orthogonalLoop=1;jettySize=auto;html=1;entryX=1;entryY=0.5;entryDx=0;entryDy=0;" edge="1" parent="1" source="xZsVo6f30EyC9vr5Mrp2-3" target="onPUVNJoLzKqrLVPdGGp-101">
          <mxGeometry relative="1" as="geometry">
            <Array as="points">
              <mxPoint x="450" y="1797" />
              <mxPoint x="450" y="1797" />
            </Array>
          </mxGeometry>
        </mxCell>
        <mxCell id="xZsVo6f30EyC9vr5Mrp2-26" value="&lt;b&gt;NO&lt;/b&gt;" style="edgeLabel;html=1;align=center;verticalAlign=middle;resizable=0;points=[];" vertex="1" connectable="0" parent="xZsVo6f30EyC9vr5Mrp2-25">
          <mxGeometry x="0.5002" y="-2" relative="1" as="geometry">
            <mxPoint x="20" y="2" as="offset" />
          </mxGeometry>
        </mxCell>
        <mxCell id="xZsVo6f30EyC9vr5Mrp2-3" value="Error" style="rhombus;whiteSpace=wrap;html=1;fillColor=#f8cecc;strokeColor=#b85450;" vertex="1" parent="1">
          <mxGeometry x="520" y="1754.5" width="80" height="85.5" as="geometry" />
        </mxCell>
        <mxCell id="xZsVo6f30EyC9vr5Mrp2-46" style="edgeStyle=orthogonalEdgeStyle;rounded=0;orthogonalLoop=1;jettySize=auto;html=1;entryX=0;entryY=0.5;entryDx=0;entryDy=0;" edge="1" parent="1" source="xZsVo6f30EyC9vr5Mrp2-7" target="xZsVo6f30EyC9vr5Mrp2-12">
          <mxGeometry relative="1" as="geometry" />
        </mxCell>
        <mxCell id="xZsVo6f30EyC9vr5Mrp2-7" value="Generate a csv file with &lt;b&gt;cloud-account-error.csv&lt;/b&gt;" style="rounded=0;whiteSpace=wrap;html=1;" vertex="1" parent="1">
          <mxGeometry x="690" y="1769.75" width="160" height="60" as="geometry" />
        </mxCell>
        <mxCell id="xZsVo6f30EyC9vr5Mrp2-12" value="re-validate file and re-start from&amp;nbsp;&lt;b&gt;#step-2&lt;/b&gt;" style="rounded=0;whiteSpace=wrap;html=1;dashed=1;fillColor=#fad7ac;strokeColor=#b46504;" vertex="1" parent="1">
          <mxGeometry x="930" y="1769.75" width="160" height="60" as="geometry" />
        </mxCell>
        <mxCell id="xZsVo6f30EyC9vr5Mrp2-29" style="edgeStyle=orthogonalEdgeStyle;rounded=0;orthogonalLoop=1;jettySize=auto;html=1;" edge="1" parent="1" source="xZsVo6f30EyC9vr5Mrp2-17" target="xZsVo6f30EyC9vr5Mrp2-28">
          <mxGeometry relative="1" as="geometry" />
        </mxCell>
        <mxCell id="xZsVo6f30EyC9vr5Mrp2-30" value="&lt;b&gt;4 Process&lt;/b&gt;" style="edgeLabel;html=1;align=center;verticalAlign=middle;resizable=0;points=[];" vertex="1" connectable="0" parent="xZsVo6f30EyC9vr5Mrp2-29">
          <mxGeometry x="0.5957" y="-2" relative="1" as="geometry">
            <mxPoint y="1" as="offset" />
          </mxGeometry>
        </mxCell>
        <mxCell id="xZsVo6f30EyC9vr5Mrp2-17" value="delete records from TblRawAccount" style="rounded=1;whiteSpace=wrap;html=1;fillColor=#d5e8d4;strokeColor=#82b366;dashed=1;" vertex="1" parent="1">
          <mxGeometry x="220" y="1900" width="180" height="65" as="geometry" />
        </mxCell>
        <mxCell id="xZsVo6f30EyC9vr5Mrp2-33" style="edgeStyle=orthogonalEdgeStyle;rounded=0;orthogonalLoop=1;jettySize=auto;html=1;exitX=0.5;exitY=1;exitDx=0;exitDy=0;" edge="1" parent="1" source="xZsVo6f30EyC9vr5Mrp2-28">
          <mxGeometry relative="1" as="geometry">
            <mxPoint x="560" y="2120" as="targetPoint" />
          </mxGeometry>
        </mxCell>
        <mxCell id="xZsVo6f30EyC9vr5Mrp2-28" value="Read &lt;b&gt;Account&lt;/b&gt; &lt;b&gt;Response&lt;/b&gt; file S3" style="rounded=1;whiteSpace=wrap;html=1;fillColor=#fff2cc;strokeColor=#d6b656;" vertex="1" parent="1">
          <mxGeometry x="470" y="2010" width="180" height="65" as="geometry" />
        </mxCell>
        <mxCell id="xZsVo6f30EyC9vr5Mrp2-36" style="edgeStyle=orthogonalEdgeStyle;rounded=0;orthogonalLoop=1;jettySize=auto;html=1;" edge="1" parent="1" source="xZsVo6f30EyC9vr5Mrp2-34">
          <mxGeometry relative="1" as="geometry">
            <mxPoint x="410" y="2160" as="targetPoint" />
          </mxGeometry>
        </mxCell>
        <mxCell id="xZsVo6f30EyC9vr5Mrp2-39" style="edgeStyle=orthogonalEdgeStyle;rounded=0;orthogonalLoop=1;jettySize=auto;html=1;exitX=1;exitY=0.5;exitDx=0;exitDy=0;" edge="1" parent="1" source="xZsVo6f30EyC9vr5Mrp2-34">
          <mxGeometry relative="1" as="geometry">
            <mxPoint x="660" y="2160" as="targetPoint" />
          </mxGeometry>
        </mxCell>
        <mxCell id="xZsVo6f30EyC9vr5Mrp2-34" value="Success Accunt" style="rhombus;whiteSpace=wrap;html=1;" vertex="1" parent="1">
          <mxGeometry x="520" y="2120" width="80" height="80" as="geometry" />
        </mxCell>
        <mxCell id="xZsVo6f30EyC9vr5Mrp2-42" style="edgeStyle=orthogonalEdgeStyle;rounded=0;orthogonalLoop=1;jettySize=auto;html=1;entryX=0;entryY=0.5;entryDx=0;entryDy=0;" edge="1" parent="1" source="xZsVo6f30EyC9vr5Mrp2-37" target="xZsVo6f30EyC9vr5Mrp2-45">
          <mxGeometry relative="1" as="geometry">
            <mxPoint x="270" y="2411" as="targetPoint" />
            <Array as="points">
              <mxPoint x="320" y="2325" />
            </Array>
          </mxGeometry>
        </mxCell>
        <mxCell id="xZsVo6f30EyC9vr5Mrp2-37" value="Insert records into &lt;b&gt;TblMainAccount&lt;/b&gt;" style="rounded=1;whiteSpace=wrap;html=1;fillColor=#d5e8d4;strokeColor=#82b366;dashed=1;" vertex="1" parent="1">
          <mxGeometry x="230" y="2127.5" width="180" height="62.5" as="geometry" />
        </mxCell>
        <mxCell id="xZsVo6f30EyC9vr5Mrp2-44" style="edgeStyle=orthogonalEdgeStyle;rounded=0;orthogonalLoop=1;jettySize=auto;html=1;entryX=1;entryY=0.5;entryDx=0;entryDy=0;" edge="1" parent="1" source="xZsVo6f30EyC9vr5Mrp2-40" target="xZsVo6f30EyC9vr5Mrp2-45">
          <mxGeometry relative="1" as="geometry">
            <mxPoint x="723.8" y="2338" as="targetPoint" />
            <Array as="points">
              <mxPoint x="740" y="2325" />
            </Array>
          </mxGeometry>
        </mxCell>
        <mxCell id="xZsVo6f30EyC9vr5Mrp2-40" value="Update records in&amp;nbsp;&lt;b&gt;TblStageCloudAccount&lt;/b&gt;" style="rounded=1;whiteSpace=wrap;html=1;fillColor=#f8cecc;strokeColor=#b85450;dashed=1;" vertex="1" parent="1">
          <mxGeometry x="660" y="2127.5" width="180" height="65" as="geometry" />
        </mxCell>
        <mxCell id="xZsVo6f30EyC9vr5Mrp2-45" value="" style="ellipse;html=1;shape=endState;fillColor=#000000;strokeColor=#ff0000;" vertex="1" parent="1">
          <mxGeometry x="525" y="2310" width="30" height="30" as="geometry" />
        </mxCell>
        <mxCell id="xZsVo6f30EyC9vr5Mrp2-49" style="edgeStyle=orthogonalEdgeStyle;rounded=0;orthogonalLoop=1;jettySize=auto;html=1;" edge="1" parent="1" source="xZsVo6f30EyC9vr5Mrp2-47" target="onPUVNJoLzKqrLVPdGGp-53">
          <mxGeometry relative="1" as="geometry" />
        </mxCell>
        <mxCell id="xZsVo6f30EyC9vr5Mrp2-50" value="&lt;b&gt;YES&lt;/b&gt;" style="edgeLabel;html=1;align=center;verticalAlign=middle;resizable=0;points=[];" vertex="1" connectable="0" parent="xZsVo6f30EyC9vr5Mrp2-49">
          <mxGeometry x="-0.4833" y="4" relative="1" as="geometry">
            <mxPoint as="offset" />
          </mxGeometry>
        </mxCell>
        <mxCell id="xZsVo6f30EyC9vr5Mrp2-51" value="&lt;b&gt;NO&lt;/b&gt;" style="edgeStyle=orthogonalEdgeStyle;rounded=0;orthogonalLoop=1;jettySize=auto;html=1;entryX=1;entryY=0.5;entryDx=0;entryDy=0;" edge="1" parent="1" source="xZsVo6f30EyC9vr5Mrp2-47" target="onPUVNJoLzKqrLVPdGGp-51">
          <mxGeometry x="-0.2727" relative="1" as="geometry">
            <Array as="points">
              <mxPoint x="518" y="1025" />
            </Array>
            <mxPoint as="offset" />
          </mxGeometry>
        </mxCell>
        <mxCell id="xZsVo6f30EyC9vr5Mrp2-47" value="Success Account" style="rhombus;whiteSpace=wrap;html=1;" vertex="1" parent="1">
          <mxGeometry x="475" y="840" width="85" height="80" as="geometry" />
        </mxCell>
        <mxCell id="qoPiFBq_tKDIY9XLKDgb-1" value="User" style="shape=umlActor;verticalLabelPosition=bottom;verticalAlign=top;html=1;outlineConnect=0;" vertex="1" parent="1">
          <mxGeometry x="21.2" y="1222.5" width="30" height="60" as="geometry" />
        </mxCell>
        <mxCell id="qoPiFBq_tKDIY9XLKDgb-4" value="" style="dashed=0;outlineConnect=0;html=1;align=center;labelPosition=center;verticalLabelPosition=bottom;verticalAlign=top;shape=mxgraph.weblogos.chrome" vertex="1" parent="1">
          <mxGeometry x="69" y="250" width="30" height="30" as="geometry" />
        </mxCell>
      </root>
    </mxGraphModel>
  </diagram>
  <diagram id="WPXmWxR6_oQTRzcOLMHB" name="Page-2">
    <mxGraphModel dx="1868" dy="588" grid="1" gridSize="10" guides="1" tooltips="1" connect="1" arrows="1" fold="1" page="1" pageScale="1" pageWidth="850" pageHeight="1100" math="0" shadow="0">
      <root>
        <mxCell id="0" />
        <mxCell id="1" parent="0" />
        <mxCell id="m65-xue7yqfySkY63nyv-6" style="edgeStyle=orthogonalEdgeStyle;rounded=0;orthogonalLoop=1;jettySize=auto;html=1;exitX=0.5;exitY=1;exitDx=0;exitDy=0;strokeColor=none;" parent="1" source="m65-xue7yqfySkY63nyv-1" edge="1">
          <mxGeometry relative="1" as="geometry">
            <mxPoint x="90" y="500" as="targetPoint" />
            <Array as="points">
              <mxPoint x="90" y="430" />
              <mxPoint x="90" y="430" />
            </Array>
          </mxGeometry>
        </mxCell>
        <mxCell id="m65-xue7yqfySkY63nyv-1" value="UI" style="html=1;fillColor=#d5e8d4;strokeColor=#82b366;" parent="1" vertex="1">
          <mxGeometry x="30" y="120" width="120" height="70" as="geometry" />
        </mxCell>
        <mxCell id="m65-xue7yqfySkY63nyv-2" value="Controller/Service" style="html=1;fillColor=#ffe6cc;strokeColor=#d79b00;" parent="1" vertex="1">
          <mxGeometry x="270" y="120" width="120" height="70" as="geometry" />
        </mxCell>
        <mxCell id="m65-xue7yqfySkY63nyv-4" value="Database" style="strokeWidth=2;html=1;shape=mxgraph.flowchart.database;whiteSpace=wrap;fillColor=#f0a30a;strokeColor=#BD7000;fontColor=#000000;" parent="1" vertex="1">
          <mxGeometry x="490" y="120" width="70" height="75" as="geometry" />
        </mxCell>
        <mxCell id="m65-xue7yqfySkY63nyv-5" value="" style="sketch=0;points=[[0,0,0],[0.25,0,0],[0.5,0,0],[0.75,0,0],[1,0,0],[0,1,0],[0.25,1,0],[0.5,1,0],[0.75,1,0],[1,1,0],[0,0.25,0],[0,0.5,0],[0,0.75,0],[1,0.25,0],[1,0.5,0],[1,0.75,0]];outlineConnect=0;fontColor=#232F3E;gradientColor=#60A337;gradientDirection=north;fillColor=#277116;strokeColor=#ffffff;dashed=0;verticalLabelPosition=bottom;verticalAlign=top;align=center;html=1;fontSize=12;fontStyle=0;aspect=fixed;shape=mxgraph.aws4.resourceIcon;resIcon=mxgraph.aws4.s3;" parent="1" vertex="1">
          <mxGeometry x="670" y="120" width="78" height="78" as="geometry" />
        </mxCell>
        <mxCell id="m65-xue7yqfySkY63nyv-20" value="&lt;blockquote style=&quot;margin: 0 0 0 40px; border: none; padding: 0px;&quot;&gt;&lt;/blockquote&gt;&lt;span style=&quot;background-color: initial;&quot;&gt;CloudProvider&lt;/span&gt;&lt;br&gt;&lt;span style=&quot;background-color: initial;&quot;&gt;AccountName&lt;/span&gt;&lt;br&gt;&lt;span style=&quot;background-color: initial;&quot;&gt;Email&lt;br&gt;&lt;/span&gt;InfraId&lt;br&gt;Role&lt;br&gt;OU&lt;br&gt;&lt;blockquote style=&quot;margin: 0 0 0 40px; border: none; padding: 0px;&quot;&gt;&lt;/blockquote&gt;" style="shape=note;whiteSpace=wrap;html=1;backgroundOutline=1;darkOpacity=0.05;align=left;" parent="1" vertex="1">
          <mxGeometry x="-80" y="195" width="120" height="100" as="geometry" />
        </mxCell>
        <mxCell id="m65-xue7yqfySkY63nyv-24" value="" style="html=1;points=[];perimeter=orthogonalPerimeter;dashed=1;" parent="1" vertex="1">
          <mxGeometry x="80" y="190" width="10" height="670" as="geometry" />
        </mxCell>
        <mxCell id="m65-xue7yqfySkY63nyv-25" value="" style="html=1;points=[];perimeter=orthogonalPerimeter;dashed=1;" parent="1" vertex="1">
          <mxGeometry x="520" y="195" width="10" height="525" as="geometry" />
        </mxCell>
        <mxCell id="m65-xue7yqfySkY63nyv-26" value="" style="html=1;points=[];perimeter=orthogonalPerimeter;dashed=1;" parent="1" vertex="1">
          <mxGeometry x="704" y="200" width="10" height="680" as="geometry" />
        </mxCell>
        <mxCell id="m65-xue7yqfySkY63nyv-28" value="Account Validation" style="edgeStyle=orthogonalEdgeStyle;html=1;align=left;spacingLeft=2;endArrow=block;rounded=0;entryX=1;entryY=0;strokeColor=default;" parent="1" edge="1">
          <mxGeometry relative="1" as="geometry">
            <mxPoint x="330" y="330" as="sourcePoint" />
            <Array as="points">
              <mxPoint x="360" y="330" />
            </Array>
            <mxPoint x="335" y="350" as="targetPoint" />
          </mxGeometry>
        </mxCell>
        <mxCell id="m65-xue7yqfySkY63nyv-35" value="If account validation fails" style="html=1;verticalAlign=bottom;endArrow=open;dashed=1;endSize=8;rounded=0;strokeColor=default;" parent="1" edge="1">
          <mxGeometry relative="1" as="geometry">
            <mxPoint x="310" y="380" as="sourcePoint" />
            <mxPoint x="90" y="380" as="targetPoint" />
          </mxGeometry>
        </mxCell>
        <mxCell id="m65-xue7yqfySkY63nyv-36" value="validate account" style="html=1;verticalAlign=bottom;endArrow=block;rounded=0;strokeColor=default;dashed=1;" parent="1" edge="1">
          <mxGeometry width="80" relative="1" as="geometry">
            <mxPoint x="330" y="320" as="sourcePoint" />
            <mxPoint x="510" y="320" as="targetPoint" />
          </mxGeometry>
        </mxCell>
        <mxCell id="m65-xue7yqfySkY63nyv-37" value="&lt;font style=&quot;font-size: 10px;&quot;&gt;Create Account CSV file [&lt;b&gt;&lt;font style=&quot;font-size: 10px;&quot; color=&quot;#ff9933&quot;&gt;new-account-accountName+CloudProvider.csv&lt;/font&gt;&lt;/b&gt;]&lt;/font&gt;" style="html=1;verticalAlign=bottom;endArrow=block;rounded=0;strokeColor=default;" parent="1" edge="1">
          <mxGeometry width="80" relative="1" as="geometry">
            <mxPoint x="340" y="520" as="sourcePoint" />
            <mxPoint x="700" y="518" as="targetPoint" />
          </mxGeometry>
        </mxCell>
        <mxCell id="m65-xue7yqfySkY63nyv-40" value="&lt;font style=&quot;font-size: 11px;&quot;&gt;&lt;font style=&quot;font-size: 11px;&quot; color=&quot;#1a1a1a&quot;&gt;save new-account details in _satge table&lt;/font&gt;&amp;nbsp;&lt;/font&gt;" style="html=1;verticalAlign=bottom;endArrow=block;rounded=0;strokeColor=default;fontColor=#FF9933;align=left;" parent="1" edge="1">
          <mxGeometry x="-0.8947" y="10" width="80" relative="1" as="geometry">
            <mxPoint x="340" y="570" as="sourcePoint" />
            <mxPoint x="510" y="570" as="targetPoint" />
            <mxPoint as="offset" />
          </mxGeometry>
        </mxCell>
        <mxCell id="m65-xue7yqfySkY63nyv-41" value="&lt;font style=&quot;font-size: 11px;&quot;&gt;display Error message&lt;/font&gt;" style="text;html=1;align=center;verticalAlign=middle;resizable=0;points=[];autosize=1;strokeColor=none;fillColor=none;fontSize=10;fontColor=#1A1A1A;strokeWidth=4;" parent="1" vertex="1">
          <mxGeometry x="125" y="375" width="130" height="30" as="geometry" />
        </mxCell>
        <mxCell id="m65-xue7yqfySkY63nyv-48" value="get the account creation status" style="html=1;verticalAlign=bottom;endArrow=block;rounded=0;strokeColor=default;fontSize=11;fontColor=#1A1A1A;" parent="1" edge="1">
          <mxGeometry width="80" relative="1" as="geometry">
            <mxPoint x="100" y="720" as="sourcePoint" />
            <mxPoint x="310" y="717" as="targetPoint" />
          </mxGeometry>
        </mxCell>
        <mxCell id="m65-xue7yqfySkY63nyv-49" value="Submit" style="html=1;verticalAlign=bottom;endArrow=block;rounded=0;strokeColor=default;fontSize=11;fontColor=#1A1A1A;" parent="1" edge="1">
          <mxGeometry width="80" relative="1" as="geometry">
            <mxPoint x="100" y="486" as="sourcePoint" />
            <mxPoint x="310" y="486" as="targetPoint" />
          </mxGeometry>
        </mxCell>
        <mxCell id="m65-xue7yqfySkY63nyv-54" value="&lt;font color=&quot;#000000&quot;&gt;Enter&lt;/font&gt;" style="html=1;verticalAlign=bottom;endArrow=block;rounded=0;strokeColor=default;fontSize=11;fontColor=#FF3333;" parent="1" edge="1">
          <mxGeometry width="80" relative="1" as="geometry">
            <mxPoint x="90" y="290" as="sourcePoint" />
            <mxPoint x="310" y="290" as="targetPoint" />
          </mxGeometry>
        </mxCell>
        <mxCell id="m65-xue7yqfySkY63nyv-57" value="&lt;span style=&quot;color: rgb(26, 26, 26);&quot;&gt;Display Account Creation progress.. message&lt;/span&gt;" style="html=1;verticalAlign=bottom;endArrow=block;rounded=0;strokeColor=default;fontSize=11;fontColor=#FF3333;align=center;" parent="1" edge="1">
          <mxGeometry x="0.0494" y="-15" width="80" relative="1" as="geometry">
            <mxPoint x="310" y="625" as="sourcePoint" />
            <mxPoint x="100" y="625" as="targetPoint" />
            <mxPoint as="offset" />
          </mxGeometry>
        </mxCell>
        <mxCell id="m65-xue7yqfySkY63nyv-58" value="" style="html=1;points=[];perimeter=orthogonalPerimeter;dashed=1;strokeWidth=1;fontSize=11;fontColor=#000000;" parent="1" vertex="1">
          <mxGeometry x="520" y="750" width="10" height="260" as="geometry" />
        </mxCell>
        <mxCell id="m65-xue7yqfySkY63nyv-59" value="get new-account-creation status" style="html=1;verticalAlign=bottom;endArrow=block;rounded=0;strokeColor=default;fontSize=11;fontColor=#000000;" parent="1" edge="1">
          <mxGeometry width="80" relative="1" as="geometry">
            <mxPoint x="330" y="740" as="sourcePoint" />
            <mxPoint x="700" y="740" as="targetPoint" />
          </mxGeometry>
        </mxCell>
        <mxCell id="m65-xue7yqfySkY63nyv-60" value="account-creation status response" style="html=1;verticalAlign=bottom;endArrow=open;dashed=1;endSize=8;rounded=0;strokeColor=default;fontSize=11;fontColor=#000000;entryX=1.4;entryY=0.618;entryDx=0;entryDy=0;entryPerimeter=0;" parent="1" edge="1">
          <mxGeometry relative="1" as="geometry">
            <mxPoint x="700" y="780" as="sourcePoint" />
            <mxPoint x="334" y="783.28" as="targetPoint" />
          </mxGeometry>
        </mxCell>
        <mxCell id="m65-xue7yqfySkY63nyv-61" value="&lt;font color=&quot;#006600&quot;&gt;if account creation success -&amp;nbsp;&lt;br&gt;delete _stage record&lt;br&gt;insert in master_account table&lt;/font&gt;" style="html=1;verticalAlign=bottom;endArrow=block;rounded=0;strokeColor=default;fontSize=11;fontColor=#000000;entryX=0.1;entryY=0.358;entryDx=0;entryDy=0;entryPerimeter=0;exitX=1.1;exitY=0.681;exitDx=0;exitDy=0;exitPerimeter=0;" parent="1" target="m65-xue7yqfySkY63nyv-58" edge="1">
          <mxGeometry x="0.0422" y="3" width="80" relative="1" as="geometry">
            <mxPoint x="331" y="843.76" as="sourcePoint" />
            <mxPoint x="410" y="820" as="targetPoint" />
            <mxPoint as="offset" />
          </mxGeometry>
        </mxCell>
        <mxCell id="m65-xue7yqfySkY63nyv-62" value="&lt;font color=&quot;#cc0000&quot;&gt;If account creation failed&lt;br&gt;update _satge table with error status&lt;/font&gt;" style="html=1;verticalAlign=bottom;endArrow=block;rounded=0;strokeColor=default;fontSize=11;fontColor=#000000;entryX=0.1;entryY=0.617;entryDx=0;entryDy=0;entryPerimeter=0;" parent="1" target="m65-xue7yqfySkY63nyv-58" edge="1">
          <mxGeometry width="80" relative="1" as="geometry">
            <mxPoint x="330" y="910" as="sourcePoint" />
            <mxPoint x="410" y="910" as="targetPoint" />
          </mxGeometry>
        </mxCell>
        <mxCell id="m65-xue7yqfySkY63nyv-63" value="" style="html=1;points=[];perimeter=orthogonalPerimeter;dashed=1;strokeWidth=1;fontSize=11;fontColor=#000000;" parent="1" vertex="1">
          <mxGeometry x="80" y="900" width="10" height="310" as="geometry" />
        </mxCell>
        <mxCell id="m65-xue7yqfySkY63nyv-66" value="&lt;font color=&quot;#006600&quot;&gt;display the status and allow &lt;br&gt;user to close the pop-up&lt;/font&gt;" style="html=1;verticalAlign=bottom;endArrow=block;rounded=0;strokeColor=default;fontSize=11;fontColor=#CC0000;entryX=1.3;entryY=0.206;entryDx=0;entryDy=0;entryPerimeter=0;exitX=-0.4;exitY=0.805;exitDx=0;exitDy=0;exitPerimeter=0;" parent="1" target="m65-xue7yqfySkY63nyv-63" edge="1">
          <mxGeometry width="80" relative="1" as="geometry">
            <mxPoint x="316" y="962.8000000000002" as="sourcePoint" />
            <mxPoint x="210" y="950" as="targetPoint" />
          </mxGeometry>
        </mxCell>
        <mxCell id="m65-xue7yqfySkY63nyv-67" value="" style="html=1;points=[];perimeter=orthogonalPerimeter;dashed=1;strokeWidth=1;fontSize=11;fontColor=#006600;" parent="1" vertex="1">
          <mxGeometry x="320" y="190" width="10" height="240" as="geometry" />
        </mxCell>
        <mxCell id="m65-xue7yqfySkY63nyv-68" value="" style="html=1;points=[];perimeter=orthogonalPerimeter;dashed=1;strokeWidth=1;fontSize=11;fontColor=#006600;" parent="1" vertex="1">
          <mxGeometry x="320" y="440" width="10" height="240" as="geometry" />
        </mxCell>
        <mxCell id="m65-xue7yqfySkY63nyv-69" value="" style="html=1;points=[];perimeter=orthogonalPerimeter;dashed=1;strokeWidth=1;fontSize=11;fontColor=#006600;" parent="1" vertex="1">
          <mxGeometry x="320" y="690" width="10" height="300" as="geometry" />
        </mxCell>
        <mxCell id="m65-xue7yqfySkY63nyv-70" value="" style="html=1;points=[];perimeter=orthogonalPerimeter;dashed=1;strokeWidth=1;fontSize=11;fontColor=#006600;" parent="1" vertex="1">
          <mxGeometry x="320" y="1000" width="10" height="300" as="geometry" />
        </mxCell>
        <mxCell id="m65-xue7yqfySkY63nyv-71" value="" style="verticalLabelPosition=bottom;html=1;verticalAlign=top;align=center;strokeColor=none;fillColor=#00BEF2;shape=mxgraph.azure.scheduler;pointerEvents=1;dashed=1;strokeWidth=1;fontSize=11;fontColor=#006600;" parent="1" vertex="1">
          <mxGeometry x="280" y="1070" width="40" height="50" as="geometry" />
        </mxCell>
        <mxCell id="m65-xue7yqfySkY63nyv-72" value="" style="html=1;points=[];perimeter=orthogonalPerimeter;dashed=1;strokeWidth=1;fontSize=11;fontColor=#006600;" parent="1" vertex="1">
          <mxGeometry x="520" y="1180" width="10" height="370" as="geometry" />
        </mxCell>
        <mxCell id="m65-xue7yqfySkY63nyv-74" value="&lt;font color=&quot;#000000&quot;&gt;Scheduler to fetch the account &lt;br&gt;creation status from S3&lt;/font&gt;" style="html=1;verticalAlign=bottom;endArrow=block;rounded=0;strokeColor=default;fontSize=11;fontColor=#006600;exitX=1.1;exitY=0.395;exitDx=0;exitDy=0;exitPerimeter=0;" parent="1" source="m65-xue7yqfySkY63nyv-70" edge="1">
          <mxGeometry width="80" relative="1" as="geometry">
            <mxPoint x="350" y="1120" as="sourcePoint" />
            <mxPoint x="700" y="1119" as="targetPoint" />
          </mxGeometry>
        </mxCell>
        <mxCell id="m65-xue7yqfySkY63nyv-75" value="" style="html=1;points=[];perimeter=orthogonalPerimeter;dashed=1;strokeWidth=1;fontSize=11;fontColor=#006600;" parent="1" vertex="1">
          <mxGeometry x="704" y="1010" width="10" height="300" as="geometry" />
        </mxCell>
        <mxCell id="m65-xue7yqfySkY63nyv-76" value="account status response" style="html=1;verticalAlign=bottom;endArrow=open;dashed=1;endSize=8;rounded=0;strokeColor=default;fontSize=11;fontColor=#000000;entryX=1;entryY=0.537;entryDx=0;entryDy=0;entryPerimeter=0;" parent="1" target="m65-xue7yqfySkY63nyv-70" edge="1">
          <mxGeometry relative="1" as="geometry">
            <mxPoint x="690" y="1160" as="sourcePoint" />
            <mxPoint x="610" y="1160" as="targetPoint" />
          </mxGeometry>
        </mxCell>
        <mxCell id="m65-xue7yqfySkY63nyv-77" value="update the main_account table&lt;br&gt;remove the _satge record" style="html=1;verticalAlign=bottom;endArrow=block;rounded=0;strokeColor=default;fontSize=11;fontColor=#000000;" parent="1" edge="1">
          <mxGeometry width="80" relative="1" as="geometry">
            <mxPoint x="330" y="1240" as="sourcePoint" />
            <mxPoint x="520" y="1240" as="targetPoint" />
          </mxGeometry>
        </mxCell>
        <mxCell id="m65-xue7yqfySkY63nyv-78" value="" style="html=1;points=[];perimeter=orthogonalPerimeter;dashed=1;strokeWidth=1;fontSize=11;fontColor=#006600;" parent="1" vertex="1">
          <mxGeometry x="320" y="1320" width="10" height="300" as="geometry" />
        </mxCell>
        <mxCell id="m65-xue7yqfySkY63nyv-79" value="" style="html=1;points=[];perimeter=orthogonalPerimeter;dashed=1;strokeWidth=1;fontSize=11;fontColor=#006600;" parent="1" vertex="1">
          <mxGeometry x="80" y="1270" width="10" height="300" as="geometry" />
        </mxCell>
        <mxCell id="m65-xue7yqfySkY63nyv-80" value="Fetch the account creation status" style="html=1;verticalAlign=bottom;endArrow=block;rounded=0;strokeColor=default;fontSize=11;fontColor=#CC6600;" parent="1" edge="1">
          <mxGeometry width="80" relative="1" as="geometry">
            <mxPoint x="90" y="1400" as="sourcePoint" />
            <mxPoint x="310" y="1400" as="targetPoint" />
          </mxGeometry>
        </mxCell>
        <mxCell id="m65-xue7yqfySkY63nyv-81" value="fetch status" style="html=1;verticalAlign=bottom;endArrow=open;dashed=1;endSize=8;rounded=0;strokeColor=default;fontSize=11;fontColor=#336600;" parent="1" target="m65-xue7yqfySkY63nyv-78" edge="1">
          <mxGeometry relative="1" as="geometry">
            <mxPoint x="520" y="1440" as="sourcePoint" />
            <mxPoint x="440" y="1440" as="targetPoint" />
          </mxGeometry>
        </mxCell>
        <mxCell id="m65-xue7yqfySkY63nyv-82" value="return records" style="html=1;verticalAlign=bottom;endArrow=open;dashed=1;endSize=8;rounded=0;strokeColor=default;fontSize=11;fontColor=#336600;" parent="1" edge="1">
          <mxGeometry relative="1" as="geometry">
            <mxPoint x="310" y="1440" as="sourcePoint" />
            <mxPoint x="90" y="1440" as="targetPoint" />
          </mxGeometry>
        </mxCell>
        <mxCell id="m65-xue7yqfySkY63nyv-83" value="create" style="shape=umlFrame;whiteSpace=wrap;html=1;dashed=1;strokeWidth=1;fontSize=11;fontColor=#CC6600;" parent="1" vertex="1">
          <mxGeometry x="50" y="250" width="720" height="170" as="geometry" />
        </mxCell>
        <mxCell id="m65-xue7yqfySkY63nyv-84" value="&lt;blockquote style=&quot;margin: 0 0 0 40px; border: none; padding: 0px;&quot;&gt;&lt;/blockquote&gt;Account Number&lt;br&gt;joinDate&lt;br&gt;currency&lt;br&gt;&lt;br&gt;&lt;blockquote style=&quot;margin: 0 0 0 40px; border: none; padding: 0px;&quot;&gt;&lt;/blockquote&gt;" style="shape=note;whiteSpace=wrap;html=1;backgroundOutline=1;darkOpacity=0.05;align=left;" parent="1" vertex="1">
          <mxGeometry x="730" y="720" width="120" height="100" as="geometry" />
        </mxCell>
        <mxCell id="m65-xue7yqfySkY63nyv-85" value="Submit" style="shape=umlFrame;whiteSpace=wrap;html=1;dashed=1;strokeWidth=1;fontSize=11;fontColor=#CC6600;" parent="1" vertex="1">
          <mxGeometry x="50" y="450" width="830" height="530" as="geometry" />
        </mxCell>
        <mxCell id="m65-xue7yqfySkY63nyv-86" value="Scheduler" style="shape=umlFrame;whiteSpace=wrap;html=1;dashed=1;strokeWidth=1;fontSize=11;fontColor=#CC6600;" parent="1" vertex="1">
          <mxGeometry x="50" y="1040" width="820" height="280" as="geometry" />
        </mxCell>
        <mxCell id="ZGZWRhwcXaZ4cj1v0WRp-1" value="Actor" style="shape=umlActor;verticalLabelPosition=bottom;verticalAlign=top;html=1;outlineConnect=0;" parent="1" vertex="1">
          <mxGeometry x="-230" y="130" width="30" height="60" as="geometry" />
        </mxCell>
        <mxCell id="ZGZWRhwcXaZ4cj1v0WRp-11" style="edgeStyle=orthogonalEdgeStyle;rounded=0;orthogonalLoop=1;jettySize=auto;html=1;" parent="1" source="ZGZWRhwcXaZ4cj1v0WRp-6" edge="1">
          <mxGeometry relative="1" as="geometry">
            <mxPoint x="40" y="375" as="targetPoint" />
            <Array as="points">
              <mxPoint x="-140" y="375" />
              <mxPoint x="-140" y="375" />
            </Array>
          </mxGeometry>
        </mxCell>
        <mxCell id="ZGZWRhwcXaZ4cj1v0WRp-6" value="" style="html=1;points=[];perimeter=orthogonalPerimeter;dashed=1;" parent="1" vertex="1">
          <mxGeometry x="-220" y="230" width="10" height="230" as="geometry" />
        </mxCell>
        <mxCell id="ZGZWRhwcXaZ4cj1v0WRp-13" style="edgeStyle=orthogonalEdgeStyle;rounded=0;orthogonalLoop=1;jettySize=auto;html=1;entryX=-0.004;entryY=0.291;entryDx=0;entryDy=0;entryPerimeter=0;" parent="1" source="ZGZWRhwcXaZ4cj1v0WRp-12" target="m65-xue7yqfySkY63nyv-85" edge="1">
          <mxGeometry relative="1" as="geometry" />
        </mxCell>
        <mxCell id="ZGZWRhwcXaZ4cj1v0WRp-12" value="" style="html=1;points=[];perimeter=orthogonalPerimeter;dashed=1;" parent="1" vertex="1">
          <mxGeometry x="-220" y="490" width="10" height="230" as="geometry" />
        </mxCell>
        <mxCell id="ZGZWRhwcXaZ4cj1v0WRp-15" style="edgeStyle=orthogonalEdgeStyle;rounded=0;orthogonalLoop=1;jettySize=auto;html=1;" parent="1" source="ZGZWRhwcXaZ4cj1v0WRp-14" edge="1">
          <mxGeometry relative="1" as="geometry">
            <mxPoint x="60" y="1435" as="targetPoint" />
          </mxGeometry>
        </mxCell>
        <mxCell id="ZGZWRhwcXaZ4cj1v0WRp-14" value="" style="html=1;points=[];perimeter=orthogonalPerimeter;dashed=1;" parent="1" vertex="1">
          <mxGeometry x="-210" y="1320" width="10" height="230" as="geometry" />
        </mxCell>
      </root>
    </mxGraphModel>
  </diagram>
</mxfile>
